<svg width="24" height="25" viewBox="0 0 24 25" fill="none" xmlns="http://www.w3.org/2000/svg">
<g clip-path="url(#clip0_28_7878)">
<path d="M11 15.25C11 15.9375 11.5625 16.5 12.25 16.5C12.9375 16.5 13.5 15.9375 13.5 15.25C13.5 14.5625 12.9375 14 12.25 14C11.5625 14 11 14.5625 11 15.25ZM11 7.75C11 8.4375 11.5625 9 12.25 9C12.9375 9 13.5 8.4375 13.5 7.75C13.5 7.0625 12.9375 6.5 12.25 6.5C11.5625 6.5 11 7.0625 11 7.75ZM11 11.5C11 12.1875 11.5625 12.75 12.25 12.75C12.9375 12.75 13.5 12.1875 13.5 11.5C13.5 10.8125 12.9375 10.25 12.25 10.25C11.5625 10.25 11 10.8125 11 11.5Z" fill="#161616"/>
</g>
<defs>
<clipPath id="clip0_28_7878">
<rect width="24" height="24" fill="white" transform="translate(0 0.5)"/>
</clipPath>
</defs>
</svg>
